HIERARCHY
ROOT Hips
{
	OFFSET -0.001795 -0.223333 0.028219
	CHANNELS 6 Xposition Yposition Zposition Zrotation Yrotation Xrotation 
	JOINT LeftUpLeg
	{
		OFFSET 0.069520 -0.091406 -0.006815
		CHANNELS 3 Zrotation Yrotation Xrotation
		JOINT LeftLeg
		{
			OFFSET 0.034277 -0.375199 -0.004496
			CHANNELS 3 Zrotation Yrotation Xrotation
			JOINT LeftFoot
			{
				OFFSET -0.013596 -0.397961 -0.043693
				CHANNELS 3 Zrotation Yrotation Xrotation
				JOINT LeftToe
				{
					OFFSET 0.026358 -0.055791 0.119288
					CHANNELS 3 Zrotation Yrotation Xrotation
					End Site
					{
						OFFSET 0.000000 0.000000 0.000000
					}
				}
			}
		}
	}
	JOINT RightUpLeg
	{
		OFFSET -0.067670 -0.090522 -0.004320
		CHANNELS 3 Zrotation Yrotation Xrotation
		JOINT RightLeg
		{
			OFFSET -0.038290 -0.382569 -0.008850
			CHANNELS 3 Zrotation Yrotation Xrotation
			JOINT RightFoot
			{
				OFFSET 0.015774 -0.398415 -0.042312
				CHANNELS 3 Zrotation Yrotation Xrotation
				JOINT RightToe
				{
					OFFSET -0.025372 -0.048144 0.123348
					CHANNELS 3 Zrotation Yrotation Xrotation
					End Site
					{
						OFFSET 0.000000 0.000000 0.000000
					}
				}
			}
		}
	}
	JOINT Spine
	{
		OFFSET -0.002533 0.108963 -0.026696
		CHANNELS 3 Zrotation Yrotation Xrotation
		JOINT Spine1
		{
			OFFSET 0.005487 0.135180 0.001092
			CHANNELS 3 Zrotation Yrotation Xrotation
			JOINT Spine2
			{
				OFFSET 0.001457 0.052922 0.025425
				CHANNELS 3 Zrotation Yrotation Xrotation
				JOINT Neck
				{
					OFFSET -0.002778 0.213870 -0.042857
					CHANNELS 3 Zrotation Yrotation Xrotation
					JOINT Head
					{
						OFFSET 0.005152 0.064970 0.051349
						CHANNELS 3 Zrotation Yrotation Xrotation
						End Site
						{
							OFFSET 0.000000 0.000000 0.000000
						}
					}
				}
				JOINT LeftShoulder
				{
					OFFSET 0.078845 0.121749 -0.034090
					CHANNELS 3 Zrotation Yrotation Xrotation
					JOINT LeftArm
					{
						OFFSET 0.090977 0.030469 -0.008868
						CHANNELS 3 Zrotation Yrotation Xrotation
						JOINT LeftForeArm
						{
							OFFSET 0.259612 -0.012772 -0.027456
							CHANNELS 3 Zrotation Yrotation Xrotation
							JOINT LeftHand
							{
								OFFSET 0.249234 0.008986 -0.001171
								CHANNELS 3 Zrotation Yrotation Xrotation
								End Site
								{
									OFFSET 0.000000 0.000000 0.000000
								}
							}
						}
					}
				}
				JOINT RightShoulder
				{
					OFFSET -0.081759 0.118833 -0.038615
					CHANNELS 3 Zrotation Yrotation Xrotation
					JOINT RightArm
					{
						OFFSET -0.096012 0.032551 -0.009143
						CHANNELS 3 Zrotation Yrotation Xrotation
						JOINT RightForeArm
						{
							OFFSET -0.253742 -0.013329 -0.021401
							CHANNELS 3 Zrotation Yrotation Xrotation
							JOINT RightHand
							{
								OFFSET -0.255298 0.007772 -0.005559
								CHANNELS 3 Zrotation Yrotation Xrotation
								End Site
								{
									OFFSET 0.000000 0.000000 0.000000
								}
							}
						}
					}
				}
			}
		}
	}
}
MOTION
Frames: 18
Frame Time: 0.050000
0.000000 0.951452 0.000000 -0.814345 -3.317001 0.533478 5.887270 -0.031736 -0.028231 -4.702202 0.553792 0.114486 10.219152 20.465227 15.631133 0.000000 0.000000 0.000000 -2.480230 0.264444 -2.438883 2.834491 -0.227236 3.055859 -4.213457 -13.822824 15.292780 0.000000 0.000000 0.000000 -0.833312 -0.209937 6.673284 5.401048 -0.929232 -21.976186 -1.389013 0.877065 26.412869 1.777982 -0.127461 -19.791345 0.000000 0.000000 0.000000 -26.411770 0.120183 -1.235120 -46.893728 -6.389449 -5.577318 -69.194673 -65.515302 54.016045 0.000000 0.000000 0.000000 19.044808 4.642319 1.198017 52.302199 8.628342 -3.867376 57.434495 68.991799 45.823110 0.000000 0.000000 0.000000 
0.001137 0.951436 -0.000255 -1.380260 -3.224669 1.014489 6.546561 -0.030573 0.303912 -4.895121 0.559352 -1.391288 10.143316 20.363815 15.613090 0.000000 0.000000 0.000000 -2.016346 0.258004 -2.393802 2.765713 -0.234965 2.182187 -3.771434 -13.090338 15.466358 0.000000 0.000000 0.000000 -0.911450 -0.172172 5.584982 5.567767 -0.992369 -21.644002 -1.154236 0.312013 26.748216 2.141587 -0.429075 -20.234019 0.000000 0.000000 0.000000 -26.741618 1.396039 -1.881568 -46.558443 -7.157058 -5.376205 -75.430035 -64.195300 58.339991 0.000000 0.000000 0.000000 18.039795 4.168979 0.880256 52.810142 7.185845 -4.554969 67.229820 68.659687 53.430275 0.000000 0.000000 0.000000 
0.002138 0.951369 -0.000489 -1.190478 -3.618286 0.798441 6.297348 -0.021095 0.260047 -4.990944 0.580854 -0.840838 10.362783 20.653439 15.654527 0.000000 0.000000 0.000000 -2.190723 0.292589 -2.797414 2.396108 -0.171741 2.994319 -3.495420 -12.729564 15.723586 0.000000 0.000000 0.000000 -0.737160 -0.169872 5.198499 5.960715 -1.125543 -21.396047 -1.881388 0.668806 26.946369 2.358165 -0.624617 -19.280349 0.000000 0.000000 0.000000 -27.316855 1.837216 -2.254753 -45.651032 -6.952320 -5.381379 -74.808626 -64.013633 57.495032 0.000000 0.000000 0.000000 19.288150 4.078475 0.786009 52.522203 7.153555 -4.544457 61.369791 68.556055 48.479862 0.000000 0.000000 0.000000 
0.002870 0.951399 -0.000409 -1.221296 -3.664859 0.946408 6.394017 -0.033652 -0.030895 -5.192869 0.607167 -0.597317 10.408908 20.714938 15.629604 0.000000 0.000000 0.000000 -2.191050 0.310302 -3.006052 2.365194 -0.165689 3.071701 -3.476181 -12.713192 15.768085 0.000000 0.000000 0.000000 -1.161109 -0.119267 4.312947 6.684292 -1.375956 -20.700539 -1.996759 0.155636 26.777063 2.317309 -0.711482 -18.887113 0.000000 0.000000 0.000000 -28.003833 2.571118 -2.630086 -45.585832 -6.756996 -5.459109 -74.409808 -63.659896 56.972198 0.000000 0.000000 0.000000 18.484259 4.384112 0.848195 52.792455 6.340094 -4.862263 67.129278 68.467026 52.901650 0.000000 0.000000 0.000000 
0.003572 0.951548 0.000227 -1.218925 -3.803554 0.795382 5.768805 -0.020645 0.142883 -4.214986 0.497010 -0.498405 10.533672 20.883112 15.664207 0.000000 0.000000 0.000000 -2.140822 0.311151 -3.024443 2.170346 -0.131626 3.440260 -3.417447 -12.632600 15.751319 0.000000 0.000000 0.000000 -1.051945 -0.122744 4.233078 6.818471 -1.468949 -20.131622 -2.165151 0.232199 26.462308 2.205087 -0.671328 -18.303258 0.000000 0.000000 0.000000 -28.020361 2.329711 -2.487033 -45.355378 -6.392675 -5.525336 -74.951084 -63.930022 57.606273 0.000000 0.000000 0.000000 18.894248 4.062037 0.632515 52.695139 6.050148 -4.927007 66.293636 67.857494 51.607819 0.000000 0.000000 0.000000 
0.004052 0.951537 0.001511 -1.188310 -3.795870 0.826632 5.488897 -0.014479 0.267923 -3.851389 0.454698 -0.637904 10.547001 20.903634 15.649712 0.000000 0.000000 0.000000 -2.156873 0.294970 -2.822447 2.072064 -0.126180 3.165401 -3.410022 -12.618825 15.753406 0.000000 0.000000 0.000000 -1.198275 -0.100584 3.727214 6.900561 -1.458243 -20.475453 -2.045849 -0.164430 27.088099 1.899232 -0.526671 -18.479514 0.000000 0.000000 0.000000 -28.118499 2.526470 -2.441396 -45.364649 -6.059247 -5.744798 -75.093252 -63.558059 57.591674 0.000000 0.000000 0.000000 18.477167 4.410127 0.755758 52.561762 5.324823 -5.270043 67.340736 68.180453 52.603822 0.000000 0.000000 0.000000 
0.004276 0.951418 0.003337 -1.262182 -3.807445 0.711567 5.287409 0.010137 0.734404 -3.397690 0.404268 -1.006977 10.556711 20.921491 15.598692 0.000000 0.000000 0.000000 -2.031399 0.285189 -2.721246 1.953429 -0.104347 3.430989 -3.420138 -12.622893 15.676552 0.000000 0.000000 0.000000 -1.049442 -0.101621 3.526461 6.997570 -1.504209 -20.285178 -2.128494 -0.157872 26.919424 2.158455 -0.713896 -18.299362 0.000000 0.000000 0.000000 -28.275296 2.349201 -2.345205 -45.231204 -5.354651 -5.958201 -75.168106 -63.469980 57.520469 0.000000 0.000000 0.000000 18.691484 4.219605 0.633521 52.310841 4.573954 -5.537691 68.796112 68.201827 53.781801 0.000000 0.000000 0.000000 
0.004349 0.951341 0.005347 -1.286535 -3.780401 0.762643 5.182928 0.020027 0.939086 -3.187807 0.381985 -1.235843 10.547876 20.912825 15.564161 0.000000 0.000000 0.000000 -1.875401 0.261907 -2.457091 1.702071 -0.081786 3.107603 -3.429189 -12.628855 15.648969 0.000000 0.000000 0.000000 -1.044022 -0.093770 3.270101 7.082192 -1.514187 -20.411848 -2.200620 -0.292875 26.987469 2.135696 -0.719320 -18.296868 0.000000 0.000000 0.000000 -28.330750 2.175827 -2.184112 -44.869394 -5.044772 -6.044755 -74.864934 -63.734509 57.508432 0.000000 0.000000 0.000000 18.724498 4.159813 0.569058 51.840624 4.084667 -5.691525 71.937798 68.520466 56.631898 0.000000 0.000000 0.000000 
0.004300 0.951431 0.007246 -1.287635 -3.556749 0.878269 5.092910 0.019099 0.985789 -3.001562 0.361330 -1.385467 10.432861 20.763515 15.518342 0.000000 0.000000 0.000000 -1.754726 0.240341 -2.217651 1.511636 -0.062691 2.990470 -3.424229 -12.486463 15.110417 0.000000 0.000000 0.000000 -1.054389 -0.079222 2.829904 7.141121 -1.557385 -20.062865 -2.258191 -0.537523 26.783090 2.078157 -0.689423 -18.347871 0.000000 0.000000 0.000000 -28.199953 2.077200 -2.083492 -44.891688 -4.827931 -6.107663 -73.941637 -64.313893 57.269236 0.000000 0.000000 0.000000 18.709177 4.191931 0.555285 51.427588 4.038398 -5.636872 74.734593 69.610382 59.974927 0.000000 0.000000 0.000000 
0.004240 0.951624 0.008886 -1.332180 -3.155529 0.938241 5.190551 0.012105 0.992194 -3.024206 0.361244 -1.432128 10.213346 20.475897 15.399117 0.000000 0.000000 0.000000 -1.618628 0.215527 -1.953782 1.482415 -0.062358 2.947472 -3.604534 -12.652898 14.646995 0.000000 0.000000 0.000000 -1.325086 -0.070199 2.872313 7.389653 -1.573970 -20.497881 -2.183093 -0.676696 26.962425 1.842589 -0.484642 -18.778414 0.000000 0.000000 0.000000 -27.901996 2.142220 -2.140556 -45.090252 -4.829333 -6.123737 -73.215304 -64.323485 56.653421 0.000000 0.000000 0.000000 18.563265 4.050308 0.523280 50.521289 4.257450 -5.478222 78.973038 71.267595 65.375792 0.000000 0.000000 0.000000 
0.004098 0.951746 0.010212 -1.305677 -2.430941 1.147436 5.304399 -0.015251 0.696926 -3.148680 0.369000 -1.375943 9.834070 19.982138 15.180218 0.000000 0.000000 0.000000 -1.449144 0.190953 -1.705163 1.417397 -0.063840 2.740407 -4.049771 -13.224519 14.056458 0.000000 0.000000 0.000000 -1.551800 -0.057150 2.740822 7.504763 -1.591617 -20.459909 -2.223852 -0.948309 26.946546 1.653118 -0.315868 -18.986714 0.000000 0.000000 0.000000 -27.754188 2.096003 -2.173065 -45.131089 -4.786901 -6.120644 -72.745195 -64.845168 56.665672 0.000000 0.000000 0.000000 18.463618 3.941281 0.524864 49.760980 5.057368 -5.098220 86.823442 73.173871 74.741522 0.000000 0.000000 0.000000 
0.003859 0.951900 0.011348 -1.276712 -1.907823 1.296486 5.441342 -0.030762 0.590152 -3.336868 0.384905 -1.498886 9.541826 19.594455 15.066035 0.000000 0.000000 0.000000 -1.281216 0.177132 -1.582113 1.619527 -0.091906 2.730340 -4.826949 -14.440740 13.538799 0.000000 0.000000 0.000000 -1.942397 -0.046826 2.942344 7.549494 -1.565255 -20.729197 -2.023626 -0.841963 26.979101 1.633890 -0.214209 -19.300067 0.000000 0.000000 0.000000 -27.205914 2.380659 -2.471978 -45.530696 -5.001258 -6.042824 -71.987982 -64.869063 55.948691 0.000000 0.000000 0.000000 18.132054 3.841428 0.606117 48.956470 7.075213 -4.278848 98.027250 75.907142 89.021352 0.000000 0.000000 0.000000 
0.003528 0.952287 0.012317 -1.233821 -1.413697 1.445662 5.568478 -0.040591 0.602261 -3.526706 0.401212 -1.847168 9.235561 19.188722 15.084406 0.000000 0.000000 0.000000 -1.204407 0.159267 -1.398253 1.693924 -0.112856 2.384349 -5.246671 -15.126544 13.597147 0.000000 0.000000 0.000000 -2.235909 -0.035484 2.987036 7.472336 -1.515178 -20.908914 -1.879157 -0.565490 27.052251 1.437204 0.022312 -19.459257 0.000000 0.000000 0.000000 -26.474697 2.444670 -2.654180 -46.104695 -5.086917 -6.023130 -71.032754 -65.314484 55.397743 0.000000 0.000000 0.000000 17.784831 4.063072 0.898957 47.722836 10.156217 -3.092964 118.419516 79.207694 114.525758 0.000000 0.000000 0.000000 
0.003184 0.952718 0.013227 -1.188238 -1.179171 1.438627 5.642084 -0.040292 0.713185 -3.665680 0.412861 -1.997531 9.068303 18.964437 15.159252 0.000000 0.000000 0.000000 -1.235983 0.140414 -1.184707 1.749055 -0.126825 2.150114 -5.348175 -15.300264 13.797294 0.000000 0.000000 0.000000 -2.513966 -0.027043 3.114354 7.350962 -1.477639 -20.908664 -1.554444 0.212775 26.830707 1.579316 0.119793 -19.938588 0.000000 0.000000 0.000000 -25.987124 2.438418 -2.943711 -46.489530 -5.121846 -5.929574 -67.807803 -65.342364 52.381699 0.000000 0.000000 0.000000 17.098028 4.921000 1.588970 45.980380 15.260700 -1.202145 158.358370 82.524605 162.427062 0.000000 0.000000 0.000000 
0.002989 0.953679 0.014049 -1.151470 -1.246793 1.333176 5.605299 -0.025566 0.987118 -3.658187 0.413305 -2.174587 9.029273 18.911723 15.482511 0.000000 0.000000 0.000000 -1.318731 0.125959 -1.006165 1.611307 -0.114833 1.959069 -5.022417 -14.817773 14.426384 0.000000 0.000000 0.000000 -2.684725 -0.022913 3.234403 6.964123 -1.347981 -21.218414 -1.126784 1.583952 26.884631 2.481435 -0.260488 -19.926731 0.000000 0.000000 0.000000 -24.526839 1.952488 -2.901070 -47.157022 -5.038126 -5.935717 -64.430541 -65.194786 49.112617 0.000000 0.000000 0.000000 16.130741 6.304602 2.606825 41.945956 22.183160 0.976203 -132.494255 81.369947 -118.169011 0.000000 0.000000 0.000000 
0.003035 0.954369 0.014904 -1.116473 -1.418592 1.105590 5.720602 -0.009190 1.302036 -3.954818 0.442877 -2.151131 9.049512 18.933369 15.700048 0.000000 0.000000 0.000000 -1.153885 0.102700 -0.786530 1.445636 -0.094647 1.946720 -5.318097 -15.382378 14.768698 0.000000 0.000000 0.000000 -2.354122 -0.042960 3.475039 6.123331 -1.129421 -21.221309 -0.821649 2.878642 26.587259 3.179574 -0.528496 -19.854063 0.000000 0.000000 0.000000 -24.431806 1.716060 -3.146358 -46.722162 -4.971677 -5.773262 -58.732250 -64.498473 43.594535 0.000000 0.000000 0.000000 14.225620 8.160178 3.701871 36.287335 30.000393 2.791881 -98.108376 72.365538 -72.798896 0.000000 0.000000 0.000000 
0.003239 0.955123 0.015848 -1.094977 -1.220183 0.842922 5.481603 0.008787 1.584693 -3.565258 0.404778 -2.096146 8.911659 18.755783 15.800068 0.000000 0.000000 0.000000 -1.107999 0.077949 -0.532747 1.220134 -0.070134 1.892643 -5.352975 -15.509465 15.603778 0.000000 0.000000 0.000000 -2.190893 -0.058374 3.772253 5.576004 -0.959518 -21.512700 -0.613416 3.973352 26.521852 4.401219 -1.175492 -19.569397 0.000000 0.000000 0.000000 -23.755742 0.995067 -3.009047 -46.819628 -4.661326 -5.799197 -53.307441 -63.298595 38.263777 0.000000 0.000000 0.000000 11.825589 9.788607 4.519249 28.453339 38.297995 3.470288 -78.831252 61.054482 -45.322539 0.000000 0.000000 0.000000 
0.003533 0.955654 0.016989 -0.903924 -0.496340 0.491397 5.417893 0.019584 1.926460 -3.726318 0.414445 -2.101551 8.460920 18.169240 15.691347 0.000000 0.000000 0.000000 -1.067164 0.025124 0.017937 0.783988 -0.022870 1.801590 -5.611309 -15.896203 16.052040 0.000000 0.000000 0.000000 -1.910353 -0.083545 4.207157 4.812312 -0.741751 -21.518633 -0.668122 4.695710 26.011261 5.579783 -1.834256 -19.134014 0.000000 0.000000 0.000000 -23.471028 0.676529 -3.176506 -46.618882 -4.332561 -5.750877 -47.489036 -61.808432 32.748135 0.000000 0.000000 0.000000 8.996845 11.429149 5.124115 19.725409 43.238194 2.243780 -68.264190 49.595057 -29.640648 0.000000 0.000000 0.000000 
